<svg width="19" height="19" viewBox="0 0 19 19" fill="none" xmlns="http://www.w3.org/2000/svg">
<path d="M11.0751 13.6091L9.54599 12.0929C8.80816 11.3611 8.43921 10.9953 8.01589 10.8615C7.64354 10.7439 7.24332 10.7482 6.87361 10.8739C6.45323 11.0168 6.0923 11.3905 5.37046 12.138L1.70692 15.7565M11.0751 13.6091L11.388 13.2988C12.1268 12.5662 12.4961 12.1999 12.92 12.0662C13.2927 11.9487 13.6932 11.9533 14.0631 12.0794C14.4837 12.2228 14.8446 12.5975 15.5663 13.3469L16.3332 14.1188M11.0751 13.6091L14.7519 17.2932M1.70692 15.7565C1.73536 15.9875 1.7838 16.1701 1.86633 16.3321C2.04209 16.677 2.32255 16.9575 2.66752 17.1333C3.05969 17.3331 3.57307 17.3331 4.59984 17.3331H13.3998C13.9996 17.3331 14.4243 17.3331 14.7519 17.2932M1.70692 15.7565C1.6665 15.4284 1.6665 15.0025 1.6665 14.3998V5.59977C1.6665 4.57301 1.6665 4.05963 1.86633 3.66746C2.04209 3.32249 2.32255 3.04203 2.66752 2.86625C3.05969 2.66644 3.57307 2.66644 4.59984 2.66644L9.45817 2.66634M16.3332 14.1188V14.3998C16.3332 15.4265 16.3332 15.9399 16.1333 16.3321C15.9576 16.677 15.6771 16.9575 15.3322 17.1333C15.1691 17.2164 14.985 17.2649 14.7519 17.2932M16.3332 14.1188V9.54134M10.8332 8.16652L12.6893 7.79523C12.8512 7.76286 12.9322 7.74668 13.0076 7.71708C13.0746 7.69081 13.1382 7.65674 13.1973 7.61558C13.2637 7.56921 13.3221 7.51085 13.4388 7.39414L17.2498 3.58314C17.756 3.07689 17.756 2.25608 17.2498 1.74981C16.7436 1.24355 15.9227 1.24355 15.4165 1.74981L11.6055 5.56081C11.4888 5.67752 11.4304 5.73588 11.384 5.80237C11.3428 5.86138 11.3088 5.92503 11.2825 5.99201C11.2529 6.06747 11.2368 6.14841 11.2043 6.31025L10.8332 8.16652Z" stroke="#9B9C9E" stroke-width="1.5" stroke-linecap="round" stroke-linejoin="round"/>
</svg>
