<svg width="19" height="19" viewBox="0 0 19 19" fill="none" xmlns="http://www.w3.org/2000/svg">
<g clip-path="url(#clip0_40_1508)">
<path d="M9.75 14.375C11.0429 14.375 12.2829 13.8614 13.1971 12.9471C14.1114 12.0329 14.625 10.7929 14.625 9.5C14.625 8.20707 14.1114 6.96709 13.1971 6.05285C12.2829 5.13861 11.0429 4.625 9.75 4.625C8.45707 4.625 7.21709 5.13861 6.30285 6.05285C5.38861 6.96709 4.875 8.20707 4.875 9.5C4.875 10.7929 5.38861 12.0329 6.30285 12.9471C7.21709 13.8614 8.45707 14.375 9.75 14.375Z" stroke="white" stroke-width="1.5" stroke-linecap="round" stroke-linejoin="round"/>
<path d="M15.105 14.855L15.007 14.757M15.007 4.243L15.105 4.145M4.396 14.854L4.494 14.756M9.75 2.06V2M9.75 17V16.94M2.31 9.5H2.25M17.25 9.5H17.19M4.492 4.242L4.395 4.145L4.493 4.243L4.492 4.242Z" stroke="white" stroke-width="1.875" stroke-linecap="round" stroke-linejoin="round"/>
</g>
<defs>
<clipPath id="clip0_40_1508">
<rect width="18" height="18" fill="white" transform="translate(0.75 0.5)"/>
</clipPath>
</defs>
</svg>
