<svg width="11" height="10" viewBox="0 0 11 10" fill="none" xmlns="http://www.w3.org/2000/svg">
<path d="M3.49349 3.12854C3.57148 3.08621 3.63553 3.02217 3.67786 2.94417L5.14661 0.239794C5.18601 0.16725 5.24426 0.106683 5.31521 0.0644799C5.38616 0.0222762 5.46718 0 5.54974 0C5.63229 0 5.71331 0.0222762 5.78426 0.0644799C5.85521 0.106683 5.91346 0.16725 5.95286 0.239794L7.42161 2.94417C7.46411 3.02229 7.52786 3.08604 7.60599 3.12854L10.3104 4.59729C10.3829 4.6367 10.4435 4.69494 10.4857 4.76589C10.5279 4.83684 10.5502 4.91787 10.5502 5.00042C10.5502 5.08297 10.5279 5.164 10.4857 5.23495C10.4435 5.3059 10.3829 5.36414 10.3104 5.40354L7.60599 6.87229C7.52799 6.91462 7.46394 6.97867 7.42161 7.05667L5.95286 9.76104C5.91346 9.83359 5.85521 9.89415 5.78426 9.93636C5.71331 9.97856 5.63229 10.0008 5.54974 10.0008C5.46718 10.0008 5.38616 9.97856 5.31521 9.93636C5.24426 9.89415 5.18601 9.83359 5.14661 9.76104L3.67786 7.05667C3.63553 6.97867 3.57148 6.91462 3.49349 6.87229L0.78911 5.40354C0.716567 5.36414 0.656 5.3059 0.613796 5.23495C0.571593 5.164 0.549316 5.08297 0.549316 5.00042C0.549316 4.91787 0.571593 4.83684 0.613796 4.76589C0.656 4.69494 0.716567 4.6367 0.78911 4.59729L3.49349 3.12854Z" fill="white"/>
</svg>
