<svg width="20" height="20" viewBox="0 0 20 20" fill="none" xmlns="http://www.w3.org/2000/svg">
<path d="M12.4527 14.2654L10.6456 12.4735C9.77364 11.6086 9.3376 11.1763 8.83731 11.0182C8.39726 10.8792 7.92428 10.8843 7.48735 11.0328C6.99053 11.2017 6.56398 11.6434 5.7109 12.5268L1.38126 16.8032M12.4527 14.2654L12.8226 13.8987C13.6956 13.0329 14.1321 12.6 14.633 12.4419C15.0735 12.3031 15.5468 12.3085 15.9841 12.4575C16.4811 12.627 16.9076 13.0698 17.7605 13.9555L18.6668 14.8677M12.4527 14.2654L16.7981 18.6193M1.38126 16.8032C1.41488 17.0762 1.47212 17.292 1.56965 17.4835C1.77737 17.8911 2.10883 18.2226 2.51652 18.4303C2.97999 18.6665 3.58671 18.6665 4.80016 18.6665H15.2002C15.909 18.6665 16.4109 18.6665 16.7981 18.6193M1.38126 16.8032C1.3335 16.4154 1.3335 15.9121 1.3335 15.1998V4.79979C1.3335 3.58634 1.3335 2.97962 1.56965 2.51615C1.77737 2.10846 2.10883 1.777 2.51652 1.56927C2.97999 1.33313 3.58671 1.33313 4.80016 1.33313L10.5418 1.33301M18.6668 14.8677V15.1998C18.6668 16.4132 18.6668 17.02 18.4307 17.4835C18.223 17.8911 17.8915 18.2226 17.4838 18.4303C17.2911 18.5285 17.0736 18.5859 16.7981 18.6193M18.6668 14.8677V9.45801" stroke="white" stroke-width="1.5" stroke-linecap="round" stroke-linejoin="round"/>
<path d="M14.2023 1.33301C13.9474 1.33297 13.7091 1.33293 13.5144 1.36066C13.2945 1.39197 13.0686 1.46601 12.8879 1.65728C12.7134 1.84217 12.6517 2.06249 12.625 2.27293C12.6001 2.46964 12.6001 2.71349 12.6001 2.98884V3.31127C12.6001 3.54538 12.7992 3.73518 13.0448 3.73518C13.2905 3.73518 13.4896 3.54538 13.4896 3.31127V3.01296C13.4896 2.7061 13.4903 2.51438 13.5081 2.37478C13.5164 2.30928 13.5268 2.27154 13.5352 2.24991C13.5423 2.23167 13.5473 2.22631 13.549 2.22453C13.549 2.22453 13.5509 2.2224 13.5562 2.22006C13.5661 2.21577 13.5914 2.20693 13.6458 2.19918C13.7669 2.18195 13.9373 2.18084 14.2308 2.18084H14.972V6.98518H13.9343C13.6887 6.98518 13.4896 7.17498 13.4896 7.4091C13.4896 7.64321 13.6887 7.83301 13.9343 7.83301H17.1957C17.4413 7.83301 17.6404 7.64321 17.6404 7.4091C17.6404 7.17498 17.4413 6.98518 17.1957 6.98518H15.8615V2.18084H16.6027C16.8962 2.18084 17.0667 2.18195 17.1877 2.19918C17.2421 2.20693 17.2675 2.21577 17.2773 2.22006C17.2826 2.2224 17.2841 2.224 17.2841 2.224C17.2858 2.22578 17.2913 2.23167 17.2984 2.24991C17.3068 2.27154 17.3172 2.30928 17.3255 2.37478C17.3432 2.51438 17.344 2.7061 17.344 3.01296V3.31127C17.344 3.54538 17.5431 3.73518 17.7887 3.73518C18.0343 3.73518 18.2334 3.54538 18.2334 3.31127V2.98883C18.2334 2.71349 18.2335 2.46964 18.2085 2.27293C18.1818 2.06249 18.1202 1.84217 17.9456 1.65728C17.765 1.46601 17.539 1.39197 17.3191 1.36066C17.1244 1.33293 16.8861 1.33297 16.6312 1.33301H14.2023Z" fill="white" stroke="white" stroke-width="0.8"/>
</svg>
