<svg width="11" height="11" viewBox="0 0 11 11" fill="none" xmlns="http://www.w3.org/2000/svg">
<rect x="0.117857" y="0.117857" width="10.7643" height="10.7643" rx="5.38214" fill="white"/>
<rect x="0.117857" y="0.117857" width="10.7643" height="10.7643" rx="5.38214" stroke="#202020" stroke-width="0.235714"/>
<path d="M6.03344 7.42016L5.15687 7.49808C5.15687 7.49808 5.58542 5.95923 5.89708 4.92683C5.93978 4.81003 5.95461 4.68488 5.9404 4.56134C5.92618 4.4378 5.88332 4.31929 5.81521 4.21524C5.74711 4.11119 5.65565 4.02449 5.54812 3.96203C5.44058 3.89957 5.31995 3.86308 5.19583 3.85548C5.09662 3.85502 4.99844 3.87561 4.90778 3.91591C4.81712 3.9562 4.73604 4.01528 4.66989 4.08923L3.89073 4.73204C3.86931 4.75213 3.85495 4.77859 3.84978 4.8075C3.84462 4.83641 3.84892 4.86621 3.86205 4.89247C3.87518 4.91873 3.89644 4.94006 3.92267 4.95327C3.94889 4.96648 3.97868 4.97087 4.0076 4.96579L4.88417 4.88787L4.14396 7.45912C4.10126 7.57592 4.08643 7.70107 4.10064 7.82461C4.11486 7.94815 4.15772 8.06666 4.22583 8.17071C4.29393 8.27476 4.38539 8.36147 4.49292 8.42392C4.60045 8.48638 4.72108 8.52287 4.84521 8.53048C4.94442 8.53094 5.0426 8.51034 5.13326 8.47004C5.22392 8.42975 5.305 8.37068 5.37114 8.29673L6.15031 7.65391C6.17173 7.63383 6.18609 7.60736 6.19125 7.57845C6.19642 7.54955 6.19212 7.51975 6.17899 7.49348C6.16585 7.46722 6.1446 7.4459 6.11837 7.43269C6.09215 7.41948 6.06236 7.41508 6.03344 7.42016Z" fill="#202020"/>
<path d="M5.79922 3.36895C6.12196 3.36895 6.38359 3.10731 6.38359 2.78457C6.38359 2.46183 6.12196 2.2002 5.79922 2.2002C5.47648 2.2002 5.21484 2.46183 5.21484 2.78457C5.21484 3.10731 5.47648 3.36895 5.79922 3.36895Z" fill="#202020"/>
</svg>
