<svg width="20" height="21" viewBox="0 0 20 21" fill="none" xmlns="http://www.w3.org/2000/svg">
<path d="M5.54927 7.77832H4.48454C3.81602 7.77832 3.17487 8.04389 2.70215 8.51661C2.22944 8.98933 1.96387 9.63047 1.96387 10.299V17.3569C1.96387 18.0254 2.22944 18.6665 2.70215 19.1393C3.17487 19.612 3.81602 19.8775 4.48454 19.8775H15.5755C16.244 19.8775 16.8852 19.612 17.3579 19.1393C17.8306 18.6665 18.0962 18.0254 18.0962 17.3569V10.299C18.0962 9.63047 17.8306 8.98933 17.3579 8.51661C16.8852 8.04389 16.244 7.77832 15.5755 7.77832H14.5108" stroke="white" stroke-width="2.01654" stroke-miterlimit="2.613" stroke-linecap="round"/>
<path d="M10.0297 12.2006V1.22461M10.0297 1.22461L13.0545 4.24942M10.0297 1.22461L7.00488 4.24942" stroke="white" stroke-width="2.01654" stroke-linecap="round" stroke-linejoin="round"/>
</svg>
